<svg width="160" height="160" viewBox="0 0 160 160" fill="none" xmlns="http://www.w3.org/2000/svg">
<g clip-path="url(#clip0_227_6667)">
<path d="M134.154 70.6752C134.154 81.6966 129.68 91.6712 122.452 98.8904C115.22 106.11 105.233 110.577 94.198 110.577H55.9553C55.1254 110.577 54.2993 110.55 53.4849 110.5L35.7204 128.246V105.086C23.9176 98.1549 15.9998 85.3393 15.9998 70.6752C15.9998 59.6537 20.473 49.6791 27.7012 42.456C34.9333 35.2368 44.9202 30.769 55.9553 30.769H94.198C116.264 30.7652 134.154 48.6322 134.154 70.6752Z" fill="#EC8D71"/>
<line y1="-2" x2="102.588" y2="-2" transform="matrix(-1 1.70748e-07 4.47605e-08 1 148.043 60.6919)" stroke="#424244" stroke-width="4"/>
<line y1="-2" x2="102.588" y2="-2" transform="matrix(-1 1.70748e-07 4.47605e-08 1 148.044 72.8809)" stroke="#424244" stroke-width="4"/>
<line y1="-2" x2="102.588" y2="-2" transform="matrix(-1 1.70748e-07 4.47605e-08 1 148.044 86.085)" stroke="#424244" stroke-width="4"/>
</g>
<defs>
<clipPath id="clip0_227_6667">
<rect width="128" height="128" fill="white" transform="translate(16 16)"/>
</clipPath>
</defs>
</svg>
