<?xml version="1.0" encoding="utf-8"?>
<svg fill="#FBF9F1" class="Icon UsersIcon" viewBox="0 0 32 32" aria-hidden="true" focusable="false" xmlns="http://www.w3.org/2000/svg">
  <path d="M21,18c-4.411,0-8-3.589-8-8S16.589,2,21,2s8,3.589,8,8-3.589,8-8,8Zm0-14c-3.309,0-6,2.691-6,6s2.691,6,6,6,6-2.691,6-6-2.691-6-6-6Zm11,25v-2c0-3.86-3.141-7-7-7h-8c-3.859,0-7,3.14-7,7v2c0,.552,.447,1,1,1s1-.448,1-1v-2c0-2.757,2.243-5,5-5h8c2.757,0,5,2.243,5,5v2c0,.552,.447,1,1,1s1-.448,1-1ZM12,17c0-.552-.447-1-1-1-3.309,0-6-2.691-6-6s2.691-6,6-6c.553,0,1-.448,1-1s-.447-1-1-1C6.589,2,3,5.589,3,10s3.589,8,8,8c.553,0,1-.448,1-1ZM2,29v-2c0-2.757,2.243-5,5-5h2c.553,0,1-.448,1-1s-.447-1-1-1h-2C3.141,20,0,23.14,0,27v2C0,29.552,.447,30,1,30s1-.448,1-1Z"/>
</svg>