<?xml version="1.0" encoding="utf-8"?>
<svg fill="#A2A0A2"  class="MiniIcon CsvFileEncodingDropdownIcon" viewBox="0 0 24 24" aria-hidden="true" focusable="false" xmlns="http://www.w3.org/2000/svg">
  <path d="M16.8,19.4c-0.4,0-0.6-0.1-0.9-0.4c-0.5-0.5-0.6-1.3-0.1-1.9l4.6-5.1l-4.6-5.4c-0.4-0.5-0.4-1.4,0.2-1.9c0.5-0.5,1.3-0.4,1.9,0.1l5.4,6.3c0.4,0.5,0.4,1.2,0,1.8l-5.4,6C17.6,19.3,17.2,19.4,16.8,19.4z M6.1,19l-5.4-6c-0.4-0.5-0.4-1.2,0-1.8l5.4-6.3C6.6,4.4,7.4,4.3,8,4.9c0.6,0.4,0.6,1.3,0.2,1.9l-4.6,5.4l4.6,5.1C8.7,17.7,8.6,18.5,8,19c-0.3,0.3-0.5,0.4-0.9,0.4C6.7,19.4,6.4,19.3,6.1,19z"/>
</svg>