<?xml version="1.0" encoding="utf-8"?>
<svg fill="#A2A0A2"  class="Icon UserPlusIcon" viewBox="0 0 32 32" aria-hidden="true" focusable="false" xmlns="http://www.w3.org/2000/svg">
  <path d="M31,26h-3v-3c0-0.6-0.4-1-1-1s-1,0.4-1,1v3h-3c-0.6,0-1,0.4-1,1s0.4,1,1,1h3v3c0,0.6,0.4,1,1,1s1-0.4,1-1v-3h3c0.6,0,1-0.4,1-1S31.6,26,31,26z M16,18c4.4,0,8-3.6,8-8s-3.6-8-8-8s-8,3.6-8,8S11.6,18,16,18z M16,4c3.3,0,6,2.7,6,6s-2.7,6-6,6s-6-2.7-6-6S12.7,4,16,4z M21.2,20H8.8C5,20,2,23,2,26.8V31c0,0.6,0.4,1,1,1s1-0.4,1-1v-4.2C4,24.2,6.2,22,8.8,22h12.4c0.6,0,1-0.4,1-1S21.8,20,21.2,20z"/>
</svg>