<?xml version="1.0" encoding="utf-8"?>
<svg fill="#A2A0A2"  class="Icon AtMentionIcon" viewBox="0 0 32 32" aria-hidden="true" focusable="false" xmlns="http://www.w3.org/2000/svg">
  <path d="M16,0C7.2,0,0,7.2,0,16s7.2,16,16,16c3.7,0,7.3-1.3,10.1-3.6c0.4-0.3,0.5-1,0.1-1.4c-0.3-0.4-1-0.5-1.4-0.1c-2.5,2-5.6,3.1-8.8,3.1C8.3,30,2,23.7,2,16S8.3,2,16,2s14,6.3,14,14v1.5c0,1.9-1.6,3.5-3.5,3.5S23,19.4,23,17.5V16c0-3.9-3.1-7-7-7s-7,3.1-7,7s3.1,7,7,7c2.3,0,4.4-1.1,5.7-2.9c0.9,1.7,2.8,2.9,4.8,2.9c3,0,5.5-2.5,5.5-5.5V16C32,7.2,24.8,0,16,0z M16,21c-2.8,0-5-2.2-5-5s2.2-5,5-5s5,2.2,5,5S18.8,21,16,21z"/>
</svg>