<?xml version="1.0" encoding="utf-8"?>
<svg fill="#A2A0A2"  class="Icon SettingsIcon" viewBox="0 0 32 32" aria-hidden="true" focusable="false" xmlns="http://www.w3.org/2000/svg">
  <path d="M25,4c-2.4,0-4.4,1.7-4.9,4H4C3.4,8,3,8.4,3,9s0.4,1,1,1h16.1c0.5,2.3,2.5,4,4.9,4c2.8,0,5-2.2,5-5S27.8,4,25,4z M25,12c-1.7,0-3-1.3-3-3s1.3-3,3-3s3,1.3,3,3S26.7,12,25,12z M27,20H11.9c-0.5-2.3-2.5-4-4.9-4c-2.8,0-5,2.2-5,5s2.2,5,5,5c2.4,0,4.4-1.7,4.9-4H27c0.6,0,1-0.4,1-1S27.6,20,27,20z M7,24c-1.7,0-3-1.3-3-3s1.3-3,3-3s3,1.3,3,3S8.7,24,7,24z"/>
</svg>