<?xml version="1.0" encoding="utf-8"?>
<svg fill="#ddd" class="Icon ThemeableRectangularButtonPresentation-leftIcon AppsIcon" viewBox="0 0 32 32" aria-hidden="true" focusable="false" xmlns="http://www.w3.org/2000/svg">
  <path d="M9.5,2C10.878,2,12,3.122,12,4.5v5c0,1.378-1.122,2.5-2.5,2.5h-5C3.122,12,2,10.878,2,9.5v-5C2,3.122,3.122,2,4.5,2H9.5M9.5,0h-5C2.015,0,0,2.015,0,4.5v5C0,11.985,2.015,14,4.5,14h5c2.485,0,4.5-2.015,4.5-4.5v-5C14,2.015,11.985,0,9.5,0L9.5,0zM27.5,2C28.879,2,30,3.122,30,4.5v5c0,1.378-1.121,2.5-2.5,2.5h-5c-1.379,0-2.5-1.122-2.5-2.5v-5C20,3.122,21.121,2,22.5,2H27.5M27.5,0h-5C20.015,0,18,2.015,18,4.5v5c0,2.485,2.015,4.5,4.5,4.5h5c2.485,0,4.5-2.015,4.5-4.5v-5C32,2.015,29.985,0,27.5,0L27.5,0z M9.5,20c1.378,0,2.5,1.122,2.5,2.5v5c0,1.378-1.122,2.5-2.5,2.5h-5C3.122,30,2,28.878,2,27.5v-5C2,21.122,3.122,20,4.5,20H9.5M9.5,18h-5C2.015,18,0,20.015,0,22.5v5C0,29.985,2.015,32,4.5,32h5c2.485,0,4.5-2.015,4.5-4.5v-5C14,20.015,11.985,18,9.5,18L9.5,18z M24,24v-5c0-0.55,0.45-1,1-1s1,0.45,1,1v5h5c0.55,0,1,0.45,1,1s-0.45,1-1,1h-5v5c0,0.55-0.45,1-1,1s-1-0.45-1-1v-5h-5c-0.55,0-1-0.45-1-1s0.45-1,1-1H24z"/>
</svg>