<?xml version="1.0" encoding="utf-8"?>
<svg fill="#A2A0A2" class="MiniIcon LinkMiniIcon" viewBox="0 0 24 24" aria-hidden="true" focusable="false" xmlns="http://www.w3.org/2000/svg">
  <path d="M6.867,24A6.867,6.867,0,0,1,2.011,12.278L4.945,9.345a1,1,0,1,1,1.414,1.414L3.425,13.692a4.867,4.867,0,1,0,6.883,6.882l2.933-2.932a4.872,4.872,0,0,0,0-6.883,4.811,4.811,0,0,0-2-1.208,1,1,0,0,1,.59-1.911,6.87,6.87,0,0,1,2.822,11.416l-2.933,2.932A6.817,6.817,0,0,1,6.867,24Zm6.55-8.3a1,1,0,0,0-.66-1.25,4.869,4.869,0,0,1-2-8.09l2.932-2.934a4.867,4.867,0,1,1,6.883,6.883l-2.932,2.933a1,1,0,1,0,1.414,1.414l2.932-2.933a6.866,6.866,0,0,0-9.71-9.711L9.345,4.945a6.866,6.866,0,0,0,2.822,11.414.974.974,0,0,0,.295.045A1,1,0,0,0,13.417,15.7Z"/>
</svg>