<?xml version="1.0" encoding="utf-8"?>
<svg fill="#A2A0A2"  class="Icon ForwardArrowIcon" viewBox="0 0 32 32" aria-hidden="true" focusable="false" xmlns="http://www.w3.org/2000/svg">
  <path d="M3.95,14.5 L24.35,14.5 L16.95,7.1 C16.35,6.5 16.35,5.6 16.95,5 C17.55,4.4 18.45,4.4 19.05,5 L29.05,15 C29.65,15.6 29.65,16.5 29.05,17.1 L19.05,27.1 C18.75,27.4 18.35,27.5 17.95,27.5 C17.55,27.5 17.15,27.4 16.85,27.1 C16.25,26.5 16.25,25.6 16.85,25 L24.25,17.6 L3.95,17.6 C3.15,17.6 2.45,16.9 2.45,16.1 C2.45,15.3 3.15,14.5 3.95,14.5 Z"/>
</svg>