<?xml version="1.0" encoding="utf-8"?>
<svg fill="#A2A0A2"  class="NavIcon ReportingNavIcon" viewBox="0 0 40 40" aria-hidden="true" focusable="false" xmlns="http://www.w3.org/2000/svg">
  <path d="M34.5,6c-2.48,0-4.5,2.02-4.5,4.5,0,1.13.43,2.14,1.11,2.93l-4.28,7.55s-.03.06-.04.09c-.26-.05-.52-.08-.79-.08-.85,0-1.64.25-2.32.66l-4.46-3.65c.17-.48.28-.98.28-1.51,0-2.48-2.02-4.5-4.5-4.5s-4.5,2.02-4.5,4.5c0,.94.29,1.81.79,2.54l-4.51,6.17c-.41-.12-.83-.21-1.28-.21-2.48,0-4.5,2.02-4.5,4.5s2.02,4.5,4.5,4.5,4.5-2.02,4.5-4.5c0-.94-.29-1.81-.79-2.54l4.51-6.17c.41.12.83.21,1.28.21.85,0,1.64-.25,2.32-.66l4.46,3.65c-.17.48-.28.98-.28,1.51,0,2.48,2.02,4.5,4.5,4.5s4.5-2.02,4.5-4.5c0-1.13-.43-2.15-1.12-2.94.02-.03.05-.06.07-.09l4.27-7.54c.26.05.51.08.78.08,2.48,0,4.5-2.02,4.5-4.5s-2.02-4.5-4.5-4.5ZM5.5,31c-.83,0-1.5-.67-1.5-1.5s.67-1.5,1.5-1.5,1.5.67,1.5,1.5-.67,1.5-1.5,1.5Zm9.5-13c-.83,0-1.5-.67-1.5-1.5s.67-1.5,1.5-1.5,1.5.67,1.5,1.5-.67,1.5-1.5,1.5Zm11,9c-.83,0-1.5-.67-1.5-1.5s.67-1.5,1.5-1.5,1.5.67,1.5,1.5-.67,1.5-1.5,1.5Zm8.5-15c-.83,0-1.5-.67-1.5-1.5s.67-1.5,1.5-1.5,1.5.67,1.5,1.5-.67,1.5-1.5,1.5Z"/>
</svg>