<?xml version="1.0" encoding="utf-8"?>
<svg fill="#A2A0A2"  class="Icon CogStrokeIcon" viewBox="0 0 32 32" aria-hidden="true" focusable="false" xmlns="http://www.w3.org/2000/svg">
  <path d="M16,21c-2.8,0-5-2.2-5-5s2.2-5,5-5s5,2.2,5,5S18.8,21,16,21z M16,13c-1.7,0-3,1.3-3,3s1.3,3,3,3s3-1.3,3-3S17.7,13,16,13z M16.1,32H16c-1.6,0-3-0.9-3.6-2.4l-1.2-2.8c-0.4-0.8-1.2-1.3-2-1.2L6,26c-1.6,0.2-3.1-0.6-3.9-2L2,23.9c-0.8-1.4-0.7-3.1,0.2-4.3 L4,17.2c0.5-0.7,0.5-1.6,0-2.3l-1.8-2.4c-0.9-1.3-1-3-0.2-4.3l0.1-0.1C3,6.6,4.5,5.8,6,6l3,0.3c0.9,0.1,1.7-0.4,2-1.2l1.2-2.7 C12.9,0.9,14.4,0,15.9,0H16c1.6,0,3,0.9,3.7,2.4l1.2,2.7c0.4,0.8,1.2,1.3,2,1.2L26,6c1.6-0.2,3.1,0.6,3.9,2l0,0 c0.8,1.4,0.7,3.1-0.2,4.3l-1.8,2.4c-0.5,0.7-0.5,1.6,0,2.3l1.8,2.5c0.9,1.3,1,3,0.2,4.3L29.8,24c-0.8,1.4-2.3,2.1-3.9,2l-3-0.3 c-0.9-0.1-1.7,0.4-2,1.2l-1.2,2.8C19.1,31.1,17.6,32,16.1,32z M9.2,23.7c1.6,0,3,0.9,3.6,2.4l1.2,2.8c0.3,0.7,1,1.2,1.8,1.2h0.1 c0.8,0,1.5-0.5,1.8-1.2l1.2-2.8c0.7-1.6,2.3-2.5,4.1-2.3l3,0.3c0.8,0.1,1.5-0.3,1.9-1L28,23c0.4-0.7,0.4-1.5-0.1-2.2l-1.8-2.5 c-1-1.4-1-3.3,0-4.7l1.8-2.4c0.5-0.6,0.5-1.5,0.1-2.2l-0.1-0.1c-0.4-0.7-1.1-1.1-1.9-1l-3,0.3c-1.7,0.2-3.3-0.8-4-2.3l-1.2-2.7 C17.5,2.5,16.8,2,16,2h-0.1c-0.8,0-1.5,0.5-1.8,1.2l-1.2,2.7c-0.7,1.6-2.3,2.5-4,2.3L5.8,8C5,7.9,4.3,8.3,3.9,9L3.8,9.1 C3.5,9.7,3.5,10.6,4,11.2l1.8,2.4c1,1.4,1,3.3,0,4.7L4,20.8c-0.5,0.6-0.5,1.5-0.1,2.2L4,23.1c0.4,0.7,1.1,1.1,1.9,1l3-0.3 C9,23.7,9.1,23.7,9.2,23.7z"/>
</svg>