<?xml version="1.0" encoding="utf-8"?>
<svg fill="#A2A0A2"  class="Icon EmojiIcon" viewBox="0 0 32 32" aria-hidden="true" focusable="false" xmlns="http://www.w3.org/2000/svg">
  <path d="M16,0 C7.17582609,0 0,7.17585739 0,16 C0,24.8241739 7.17582609,32 16,32 C24.8241739,32 32,24.8241739 32,16 C32,7.17585739 24.8241739,0 16,0 Z M16,2.08695652 C23.696313,2.08695652 29.9130435,8.30372174 29.9130435,16 C29.9130435,23.696313 23.696313,29.9130435 16,29.9130435 C8.30368696,29.9130435 2.08695652,23.696313 2.08695652,16 C2.08695652,8.30372174 8.30368696,2.08695652 16,2.08695652 Z M10.4347826,9.04347826 C9.09005217,9.04347826 8,10.1335652 8,11.4782609 C8,12.8229565 9.09005217,13.9130435 10.4347826,13.9130435 C11.7794748,13.9130435 12.8695652,12.8229565 12.8695652,11.4782609 C12.8695652,10.1335652 11.7794748,9.04347826 10.4347826,9.04347826 Z M21.5652174,9.04347826 C20.220487,9.04347826 19.1304348,10.1335652 19.1304348,11.4782609 C19.1304348,12.8229565 20.220487,13.9130435 21.5652174,13.9130435 C22.909913,13.9130435 24,12.8229565 24,11.4782609 C24,10.1335652 22.909913,9.04347826 21.5652174,9.04347826 Z M8.23913043,19.1304348 C7.90384696,19.149913 7.59775652,19.3392696 7.41304348,19.673913 C7.23693913,20.0104696 7.26069565,20.4386435 7.47826087,20.7499826 C9.34351304,23.5401739 12.4683478,25.3913043 16,25.3913043 C19.5316522,25.3913043 22.656487,23.5401739 24.5217391,20.7499826 C24.8262261,20.294713 24.6944348,19.6088348 24.2391304,19.3043478 C23.7838261,18.9998609 23.0870957,19.1316522 22.7826087,19.5869565 C21.2761043,21.840487 18.8063652,23.3043478 16,23.3043478 C13.1936348,23.3043478 10.7238957,21.840487 9.2173913,19.5869565 C8.93488696,19.2555478 8.57441391,19.1108522 8.23913043,19.1304348 Z M8.23913043,19.1304348 C7.90384696,19.149913 7.59775652,19.3392696 7.41304348,19.673913 C7.23693913,20.0104696 7.26069565,20.4386435 7.47826087,20.7499826 C9.34351304,23.5401739 12.4683478,25.3913043 16,25.3913043 C19.5316522,25.3913043 22.656487,23.5401739 24.5217391,20.7499826 C24.8262261,20.294713 24.6944348,19.6088348 24.2391304,19.3043478 C23.7838261,18.9998609 23.0870957,19.1316522 22.7826087,19.5869565 C21.2761043,21.840487 18.8063652,23.3043478 16,23.3043478 C13.1936348,23.3043478 10.7238957,21.840487 9.2173913,19.5869565 C8.93488696,19.2555478 8.57441391,19.1108522 8.23913043,19.1304348 Z"/>
</svg>