<?xml version="1.0" encoding="utf-8"?>
<svg fill="#A2A0A2"  class="MiniIcon StrikethroughMiniIcon" viewBox="0 0 24 24" aria-hidden="true" focusable="false" xmlns="http://www.w3.org/2000/svg">
  <path d="M23,10H9.3C7.5,9.3,6.6,8.2,6.6,6.5C6.6,3.7,9.4,2,11.9,2c3.3,0,4.8,2.1,5.4,3.5C17.5,6,18,6.2,18.5,6.1h0.1c0.6-0.1,0.9-0.7,0.7-1.3C18.5,2.6,16.1,0,12,0C8.4,0,4.5,2.5,4.5,6.5c0,1.4,0.4,2.6,1.2,3.5H1c-0.6,0-1,0.4-1,1s0.4,1,1,1h22c0.6,0,1-0.4,1-1S23.6,10,23,10z M16,14c1,0.7,1.8,1.7,1.8,3.3c0,3.1-2.8,4.7-5.6,4.7c-3.3,0-5.3-2.1-6-4.4C6,17.1,5.5,16.7,5,16.9c-0.6,0.1-1,0.7-0.8,1.3c0.9,3,3.7,5.8,8,5.8c4.4,0,7.8-2.9,7.8-6.7c0-1.3-0.4-2.4-1-3.3C19,14,16,14,16,14z"/>
</svg>