<?xml version="1.0" encoding="utf-8"?>
<svg fill="#A398EB" class="MiniIcon--large MiniIcon AiHelpbotEntryMiniIcon" viewBox="0 0 24 24" aria-hidden="true" focusable="false" xmlns="http://www.w3.org/2000/svg">
  <path d="M0 10.9895H2.11478C2.20673 9.74373 3.11599 8.9554 4.52584 8.9554C5.92548 8.9554 6.83474 9.734 6.83474 10.8046C6.83474 11.7875 6.39543 12.3423 5.15926 13.0528C3.75962 13.8508 3.13642 14.7268 3.1875 16.1282L3.19772 16.8679H5.3125V16.284C5.3125 15.301 5.69051 14.7852 7.00841 14.0455C8.35697 13.2766 9.15385 12.2158 9.15385 10.717C9.15385 8.60503 7.33534 7.07703 4.63822 7.07703C1.67548 7.07703 0.0919471 8.75101 0 10.9895ZM4.38281 21.4616C5.32272 21.4616 5.95613 20.868 5.95613 19.9823C5.95613 19.0772 5.32272 18.4835 4.38281 18.4835C3.44291 18.4835 2.79928 19.0772 2.79928 19.9823C2.79928 20.868 3.44291 21.4616 4.38281 21.4616Z M11.0542 5.05424C10.5177 5.5907 10.2163 6.3183 10.2163 7.07697H9.39903C9.39903 6.3183 9.09765 5.5907 8.56119 5.05424C8.02472 4.51778 7.29712 4.2164 6.53845 4.2164V3.39909C7.29712 3.39909 8.02472 3.09771 8.56119 2.56125C9.09765 2.02478 9.39903 1.29719 9.39903 0.538513H10.2163C10.2163 1.29719 10.5177 2.02478 11.0542 2.56125C11.5906 3.09771 12.3182 3.39909 13.0769 3.39909V4.2164C12.3182 4.2164 11.5906 4.51778 11.0542 5.05424Z M15.3821 10.6896C14.9529 11.1188 14.7118 11.7009 14.7118 12.3078H14.058C14.058 11.7009 13.8169 11.1188 13.3877 10.6896C12.9585 10.2604 12.3765 10.0193 11.7695 10.0193V9.36549C12.3765 9.36549 12.9585 9.12438 13.3877 8.69521C13.8169 8.26604 14.058 7.68396 14.058 7.07703H14.7118C14.7118 7.68396 14.9529 8.26604 15.3821 8.69521C15.8113 9.12438 16.3934 9.36549 17.0003 9.36549V10.0193C16.3934 10.0193 15.8113 10.2604 15.3821 10.6896Z"/>
</svg>