<?xml version="1.0" encoding="utf-8"?>
<svg fill="#A2A0A2" class="Icon SidebarItemIcon--iconWithoutCustomizationColor UserFillIcon" viewBox="0 0 32 32" aria-hidden="true" focusable="false" xmlns="http://www.w3.org/2000/svg">
  <path d="M31,30H11c-.552,0-1-.448-1-1v-2c0-3.866,3.134-7,7-7h8c3.866,0,7,3.134,7,7v2c0,.552-.448,1-1,1Zm-23-3c0-2.029,.676-3.901,1.814-5.407,.495-.656,.023-1.593-.799-1.593h-2.015c-3.866,0-7,3.134-7,7v2c0,.552,.448,1,1,1H7c.552,0,1-.448,1-1v-2ZM28.5,10c0-4.142-3.358-7.5-7.5-7.5s-7.5,3.358-7.5,7.5,3.358,7.5,7.5,7.5,7.5-3.358,7.5-7.5Zm-17,0c0-2.125,.698-4.087,1.878-5.67,.431-.579,.176-1.413-.522-1.594-1.074-.278-2.24-.324-3.45-.067-2.917,.619-5.248,2.996-5.779,5.93-.86,4.758,2.773,8.901,7.373,8.901,.632,0,1.245-.08,1.831-.23,.71-.181,.984-1.013,.546-1.601-1.179-1.582-1.877-3.544-1.877-5.669Z"/>
</svg>